<svg version="1.1" id="Layer_1" xmlns="http://www.w3.org/2000/svg" xmlns:xlink="http://www.w3.org/1999/xlink" x="0px" y="0px"
	 width="100%" viewBox="0 0 128 128" enable-background="new 0 0 128 128" xml:space="preserve">
<path fill="#FFFEFE" opacity="1.000000" stroke="none" 
	d="
M90.000000,129.000000 
	C60.000000,129.000000 30.500000,129.000000 1.000000,129.000000 
	C1.000000,86.333336 1.000000,43.666668 1.000000,1.000000 
	C43.666668,1.000000 86.333336,1.000000 129.000000,1.000000 
	C129.000000,43.666668 129.000000,86.333336 129.000000,129.000000 
	C116.166664,129.000000 103.333336,129.000000 90.000000,129.000000 
M18.062527,86.418793 
	C18.062527,89.018944 18.062527,91.619095 18.062527,94.169998 
	C20.947706,94.169998 23.152710,94.169998 25.877687,94.169998 
	C25.877687,84.825577 25.877687,75.916641 25.877687,66.674622 
	C29.546568,66.674622 32.690136,66.630775 35.832092,66.683289 
	C43.558548,66.812431 45.797653,68.387604 48.321331,75.604286 
	C49.912865,80.155411 51.379089,84.750618 52.880913,89.332794 
	C54.871300,95.405609 55.085217,95.523056 62.311710,93.707726 
	C57.290493,84.009697 58.309723,71.732086 48.084797,64.491806 
	C57.729248,59.996033 61.079353,54.617859 59.789406,46.136433 
	C58.598320,38.304981 53.689247,33.173782 44.896526,32.476982 
	C36.173164,31.785675 27.352219,32.325699 18.062546,32.325699 
	C18.062546,50.207157 18.062546,67.822853 18.062527,86.418793 
M76.010780,37.574310 
	C69.166069,47.743477 72.507698,58.777702 83.978394,62.979324 
	C89.416992,64.971443 95.201706,66.013084 100.656181,67.968971 
	C106.010918,69.889099 107.973007,73.446014 107.497017,78.776825 
	C107.035484,83.945671 104.238029,87.028320 98.755211,88.179726 
	C88.989700,90.230515 81.142403,87.143417 75.479515,78.899590 
	C69.976044,84.029976 69.872681,85.153160 75.247047,89.432877 
	C83.141594,95.719444 92.291702,96.623001 101.728096,94.395020 
	C110.810158,92.250702 115.326019,85.819405 115.073120,76.521362 
	C114.871162,69.096718 111.012886,63.826260 103.106758,61.105015 
	C97.782524,59.272446 92.166107,58.294521 86.825897,56.501038 
	C81.502411,54.713173 79.322540,50.880051 80.010452,45.755409 
	C80.577156,41.533669 83.932823,38.589077 89.134789,38.020344 
	C96.364647,37.229904 103.112587,38.202496 108.432426,44.626247 
	C109.984314,42.540642 111.206078,40.898697 112.349091,39.362587 
	C104.172882,29.322187 86.725647,28.379658 76.010780,37.574310 
z"/>
<path fill="#FF3E3E" opacity="1.000000" stroke="none" 
	d="
M18.062536,85.928673 
	C18.062546,67.822853 18.062546,50.207157 18.062546,32.325699 
	C27.352219,32.325699 36.173164,31.785675 44.896526,32.476982 
	C53.689247,33.173782 58.598320,38.304981 59.789406,46.136433 
	C61.079353,54.617859 57.729248,59.996033 48.084797,64.491806 
	C58.309723,71.732086 57.290493,84.009697 62.311710,93.707726 
	C55.085217,95.523056 54.871300,95.405609 52.880913,89.332794 
	C51.379089,84.750618 49.912865,80.155411 48.321331,75.604286 
	C45.797653,68.387604 43.558548,66.812431 35.832092,66.683289 
	C32.690136,66.630775 29.546568,66.674622 25.877687,66.674622 
	C25.877687,75.916641 25.877687,84.825577 25.877687,94.169998 
	C23.152710,94.169998 20.947706,94.169998 18.062527,94.169998 
	C18.062527,91.619095 18.062527,89.018944 18.062536,85.928673 
M25.824013,39.500637 
	C25.824013,46.255352 25.824013,53.010063 25.824013,60.178577 
	C27.583319,60.178577 28.883587,60.187981 30.183678,60.176865 
	C34.515209,60.139824 38.861855,60.308479 43.174446,60.001415 
	C48.927502,59.591782 51.891895,56.065186 52.056309,50.008804 
	C52.243622,43.108883 49.645077,39.347717 43.443882,38.842560 
	C37.828754,38.385151 32.147266,38.742420 25.824013,39.500637 
z"/>
<path fill="#FF3838" opacity="1.000000" stroke="none" 
	d="
M76.256653,37.303581 
	C86.725647,28.379658 104.172882,29.322187 112.349091,39.362587 
	C111.206078,40.898697 109.984314,42.540642 108.432426,44.626247 
	C103.112587,38.202496 96.364647,37.229904 89.134789,38.020344 
	C83.932823,38.589077 80.577156,41.533669 80.010452,45.755409 
	C79.322540,50.880051 81.502411,54.713173 86.825897,56.501038 
	C92.166107,58.294521 97.782524,59.272446 103.106758,61.105015 
	C111.012886,63.826260 114.871162,69.096718 115.073120,76.521362 
	C115.326019,85.819405 110.810158,92.250702 101.728096,94.395020 
	C92.291702,96.623001 83.141594,95.719444 75.247047,89.432877 
	C69.872681,85.153160 69.976044,84.029976 75.479515,78.899590 
	C81.142403,87.143417 88.989700,90.230515 98.755211,88.179726 
	C104.238029,87.028320 107.035484,83.945671 107.497017,78.776825 
	C107.973007,73.446014 106.010918,69.889099 100.656181,67.968971 
	C95.201706,66.013084 89.416992,64.971443 83.978394,62.979324 
	C72.507698,58.777702 69.166069,47.743477 76.256653,37.303581 
z"/>
<path fill="#FFFBFB" opacity="1.000000" stroke="none" 
	d="
M26.159525,39.120552 
	C32.147266,38.742420 37.828754,38.385151 43.443882,38.842560 
	C49.645077,39.347717 52.243622,43.108883 52.056309,50.008804 
	C51.891895,56.065186 48.927502,59.591782 43.174446,60.001415 
	C38.861855,60.308479 34.515209,60.139824 30.183678,60.176865 
	C28.883587,60.187981 27.583319,60.178577 25.824013,60.178577 
	C25.824013,53.010063 25.824013,46.255352 26.159525,39.120552 
z"/>
</svg>